<svg width="219" height="34" viewBox="0 0 219 34" fill="none" xmlns="http://www.w3.org/2000/svg"><path d="M7.21 11L4.65 7.44l-2.52.52V11H.98V1.2h3.8c1.1 0 1.94.27 2.56.8.62.53.93 1.3.93 2.28 0 1.44-.84 2.4-2.53 2.91L8.58 11H7.21zM2.13 2.3v4.56l2.62-.52a4.08 4.08 0 001.76-.69c.41-.32.62-.78.62-1.37 0-.56-.18-1.03-.52-1.41-.34-.39-.94-.58-1.82-.58H2.13zM11 11H9.87V1.2h.88l3.96 5.95 3.95-5.95h.9V11H18.4V3.54L15 8.6h-.62L11 3.54V11zm10.52 0V1.2h4.4c.49 0 .92.1 1.3.32a2.36 2.36 0 011.24 2.07v.07c0 .47-.1.9-.32 1.26-.2.38-.52.67-.93.89.57.15 1.02.44 1.33.9.32.44.48.94.48 1.5v.06a2.67 2.67 0 01-1.41 2.38c-.44.23-.92.35-1.45.35h-4.64zm4.25-5.57c.43 0 .8-.14 1.1-.44.3-.3.44-.7.44-1.16 0-.42-.15-.78-.45-1.08-.29-.3-.64-.46-1.05-.46h-3.15V5.4l3.11.03zm.28 4.48a1.85 1.85 0 001.82-1.82v-.04c0-.49-.17-.89-.5-1.2a1.75 1.75 0 00-1.28-.47l-3.43-.04V9.9h3.4zm8.6 3.5V3.58h.86l.2.85c.26-.24.61-.46 1.07-.67.46-.21.96-.32 1.51-.32.74 0 1.4.17 1.98.52a3.8 3.8 0 011.83 3.3c0 .71-.16 1.36-.48 1.96a3.55 3.55 0 01-3.19 1.92c-.69 0-1.25-.13-1.7-.38-.42-.25-.74-.5-.96-.73v3.38h-1.12zm3.6-3.28a2.62 2.62 0 002.37-1.41 3.05 3.05 0 000-2.86 2.81 2.81 0 00-2.4-1.44c-.4 0-.76.05-1.1.17-.34.12-.62.26-.86.43-.22.17-.39.32-.49.45v3.4c.02.09.13.23.34.44.2.2.49.4.85.57.38.17.8.25 1.29.25zm5.33.88V3.58h.92l.2 1.16c.21-.29.54-.57.98-.85a2.9 2.9 0 011.61-.44c.55 0 1.01.08 1.39.23l-.12 1.13c-.3-.16-.7-.24-1.16-.24l-.53.03c-.48.03-.9.17-1.27.44-.38.26-.68.57-.9.93v5.04h-1.12zm9.67.13a3.9 3.9 0 01-1.95-.5 3.87 3.87 0 01-1.92-3.34 3.95 3.95 0 013.86-3.86c.7 0 1.35.18 1.94.53.59.35 1.05.82 1.38 1.42a3.77 3.77 0 01-1.4 5.25c-.57.33-1.21.5-1.91.5zm0-1.08A2.67 2.67 0 0055.6 8.7c.25-.42.38-.89.38-1.41 0-.51-.13-.98-.38-1.4a2.64 2.64 0 00-2.35-1.37 2.72 2.72 0 00-2.37 1.37c-.25.42-.38.89-.38 1.4a2.77 2.77 0 001.39 2.42c.42.24.87.35 1.36.35zm8.35.94h-.98l-3.2-7.42h1.22l2.47 5.85 2.46-5.85h1.22L61.6 11zm4.95-8.62a.75.75 0 01-.53-.21.75.75 0 01-.21-.54c0-.2.07-.37.2-.51a.75.75 0 01.54-.21c.2 0 .37.07.52.22.15.14.22.3.22.5s-.07.39-.22.54a.73.73 0 01-.52.2zm.57 8.62H66V3.58h1.12V11zm5.36.14c-.74 0-1.4-.17-1.97-.5a3.59 3.59 0 01-1.36-1.39 4 4 0 01-.49-1.97c0-.7.16-1.33.48-1.92a3.53 3.53 0 013.2-1.92 3.77 3.77 0 012.38.81l.3.27V.96h1.12V11h-.87l-.2-.84a3.7 3.7 0 01-1.08.67c-.45.2-.96.31-1.5.31zm.18-.98a3 3 0 001.05-.18c.33-.12.6-.26.83-.42.23-.17.4-.32.48-.45V5.68a2.6 2.6 0 00-1.1-.94c-.42-.2-.88-.3-1.4-.3a2.65 2.65 0 00-2.37 1.43c-.23.44-.34.9-.34 1.42a2.72 2.72 0 002.86 2.87zm9.13.98c-.8 0-1.51-.17-2.15-.5a3.67 3.67 0 01-2.03-3.32 3.73 3.73 0 011.9-3.36 3.9 3.9 0 012-.52 3.5 3.5 0 013.23 1.86c.32.56.48 1.17.48 1.82 0 .25 0 .43-.02.52h-6.44c.01.45.14.86.4 1.23.25.37.59.66 1.02.88.44.23.92.35 1.45.37a6 6 0 001.63-.16c.5-.12.93-.29 1.28-.51v1c-.79.46-1.7.69-2.75.69zm2.3-4.3a2.52 2.52 0 00-2.61-2.42 2.76 2.76 0 00-2.31 1.23c-.23.37-.37.76-.4 1.2h5.33zm4.77 4.3a5.38 5.38 0 01-2.66-.66l.01-1.06a4.88 4.88 0 002.59.74c.62 0 1.12-.1 1.49-.3.19-.09.33-.21.43-.37.1-.16.16-.34.16-.53 0-.3-.13-.55-.38-.73a1.93 1.93 0 00-.58-.28c-.21-.08-.56-.17-1.03-.3-.56-.15-1-.28-1.32-.4-.31-.12-.59-.3-.8-.52a1.6 1.6 0 01-.51-1.23c0-.63.27-1.12.78-1.49a3.7 3.7 0 012.11-.57c1 0 1.82.16 2.47.49l-.02 1.06a4.77 4.77 0 00-2.3-.56c-.59 0-1.07.11-1.43.33-.3.17-.46.41-.47.71 0 .24.1.45.3.62.15.15.34.27.59.36.24.08.6.19 1.07.3.5.14.9.26 1.18.36.29.1.54.23.74.39.5.34.74.82.74 1.46 0 .38-.09.72-.28 1.02-.18.29-.44.52-.78.7-.53.3-1.23.46-2.1.46zm11.17-.01l-.43.01c-.68 0-1.24-.16-1.67-.49-.43-.33-.64-.84-.64-1.54 0-.67.26-1.2.8-1.58a5.2 5.2 0 012.25-.83c.64-.1 1.14-.19 1.5-.26.36-.08.54-.15.54-.23v-.15c0-1.07-.61-1.6-1.84-1.6a5.82 5.82 0 00-2.68.69V4.13a6.05 6.05 0 012.65-.69c2 0 3 .89 3 2.66V11h-.85l-.18-.59a7.88 7.88 0 01-2.45.72zm.35-.93a5.6 5.6 0 002-.71v-2.4c-.14.08-.46.16-.98.26l-.9.15c-.72.12-1.26.31-1.6.57-.34.26-.5.58-.5.98s.11.7.36.91c.25.2.6.3 1.03.3.12 0 .31-.02.6-.06zm8.36.94c-.74 0-1.4-.17-1.97-.5a3.6 3.6 0 01-1.36-1.39 4 4 0 01-.5-1.97c0-.7.17-1.33.48-1.92.32-.59.76-1.06 1.32-1.4a3.53 3.53 0 011.89-.52 3.76 3.76 0 012.38.81l.3.27V.96h1.11V11h-.86l-.2-.84a3.7 3.7 0 01-1.08.67c-.46.2-.96.31-1.51.31zm.18-.98c.38 0 .72-.06 1.05-.18.33-.12.6-.26.83-.42.23-.17.39-.32.47-.45V5.68c-.02-.08-.13-.22-.33-.42a3.17 3.17 0 00-2.16-.81 2.66 2.66 0 00-2.37 1.43c-.23.43-.34.9-.34 1.41a2.72 2.72 0 002.86 2.87zm8.77.84h-.97l-3.2-7.42h1.22l2.47 5.85 2.46-5.85h1.22l-3.2 7.42zm4.96-8.62a.75.75 0 01-.54-.21.75.75 0 01-.2-.54c0-.2.06-.37.2-.51a.75.75 0 011.05.01c.15.14.23.3.23.5s-.08.39-.23.54a.74.74 0 01-.51.2zm.57 8.62h-1.12V3.58h1.12V11zm4.2.14a5.38 5.38 0 01-2.66-.66V9.42a4.88 4.88 0 002.59.74c.63 0 1.12-.1 1.5-.3.18-.09.33-.21.43-.37.1-.16.15-.34.15-.53 0-.3-.13-.55-.38-.73a1.93 1.93 0 00-.57-.28c-.22-.08-.56-.17-1.04-.3-.56-.15-1-.28-1.31-.4-.32-.12-.6-.3-.81-.52a1.6 1.6 0 01-.5-1.23c0-.63.26-1.12.78-1.49a3.7 3.7 0 012.1-.57c1 0 1.82.16 2.47.49l-.01 1.06a4.77 4.77 0 00-2.3-.56c-.6 0-1.08.11-1.44.33-.3.17-.45.41-.46.71 0 .24.1.45.3.62.14.15.34.27.58.36.24.08.6.19 1.08.3.5.14.89.26 1.17.36.3.1.54.23.75.39.5.34.74.82.74 1.46 0 .38-.1.72-.28 1.02-.19.29-.45.52-.79.7-.53.3-1.23.46-2.1.46zm8.14 0a3.9 3.9 0 01-1.94-.5 3.87 3.87 0 01-1.92-3.34 3.94 3.94 0 013.86-3.86c.7 0 1.35.18 1.94.53.59.35 1.05.82 1.38 1.42a3.78 3.78 0 01-1.4 5.25c-.58.33-1.22.5-1.92.5zm0-1.08a2.68 2.68 0 002.35-1.36c.26-.42.38-.89.38-1.41 0-.51-.12-.98-.37-1.4a2.65 2.65 0 00-2.35-1.37 2.72 2.72 0 00-2.37 1.37c-.25.42-.38.89-.38 1.4a2.77 2.77 0 001.39 2.42c.42.24.87.35 1.35.35zm5.27.95V3.58h.92l.2 1.16c.21-.29.54-.57.98-.85a2.9 2.9 0 011.6-.44c.56 0 1.02.08 1.4.23l-.12 1.13c-.3-.16-.7-.24-1.16-.24l-.53.03c-.48.03-.9.17-1.28.44-.37.26-.67.57-.9.93v5.04h-1.11zm5.9-7.43h1.22l2.62 5.9 2.56-5.9h1.22l-3.39 7.77c-.23.52-.42.91-.56 1.18-.14.26-.32.5-.55.72-.22.23-.5.4-.86.52a3.18 3.18 0 01-1.88.06v-1.07c.19.09.4.13.66.13.32 0 .6-.05.82-.14.33-.12.58-.32.76-.59.18-.27.4-.68.65-1.23l-3.27-7.35zm15.02 7.56a5.38 5.38 0 01-2.66-.66V9.42a4.88 4.88 0 002.59.74c.63 0 1.12-.1 1.5-.3.18-.09.32-.21.43-.37.1-.16.15-.34.15-.53 0-.3-.13-.55-.38-.73a1.93 1.93 0 00-.57-.28c-.22-.08-.56-.17-1.04-.3-.56-.15-1-.28-1.31-.4-.32-.12-.6-.3-.81-.52a1.6 1.6 0 01-.5-1.23c0-.63.26-1.12.78-1.49a3.7 3.7 0 012.1-.57c1 0 1.82.16 2.47.49l-.01 1.06a4.77 4.77 0 00-2.3-.56c-.6 0-1.07.11-1.44.33-.3.17-.45.41-.46.71 0 .24.1.45.3.62.14.15.34.27.58.36.24.08.6.19 1.08.3.5.14.89.26 1.18.36.28.1.53.23.74.39.5.34.74.82.74 1.46 0 .38-.1.72-.28 1.02-.19.29-.45.52-.78.7-.54.3-1.24.46-2.1.46zm8.15 0a3.9 3.9 0 01-1.95-.5 3.87 3.87 0 01-1.92-3.34 3.94 3.94 0 013.86-3.86c.7 0 1.35.18 1.94.53.58.35 1.05.82 1.38 1.42a3.78 3.78 0 01-1.4 5.25c-.58.33-1.22.5-1.91.5zm0-1.08a2.68 2.68 0 002.35-1.36c.25-.42.38-.89.38-1.41 0-.51-.13-.98-.38-1.4a2.65 2.65 0 00-2.35-1.37 2.72 2.72 0 00-2.37 1.37c-.25.42-.38.89-.38 1.4a2.77 2.77 0 001.39 2.42c.42.24.87.35 1.36.35zm6.32.94h-1.12V.96h1.12V11zm5.18.14a3.6 3.6 0 01-1.7-.4 3.2 3.2 0 01-1.22-1.15 3.24 3.24 0 01-.44-1.67V3.58h1.12V8a2 2 0 00.63 1.54c.42.39.96.58 1.61.58.65 0 1.18-.2 1.6-.58a2 2 0 00.63-1.52V3.58h1.12v4.35a3.13 3.13 0 01-1.65 2.8c-.52.27-1.08.41-1.7.41zm7.78-.04c-.22-.03-.42-.1-.62-.2-.39-.2-.66-.52-.81-.94a2.97 2.97 0 01-.13-.95V4.57h-1.41v-.99h1.41V1.2h1.12v2.38h2.17l-.3 1h-1.87v4.15c0 .4.03.66.09.81.1.2.23.36.42.45.19.09.38.13.59.13.2 0 .44-.03.72-.1.3-.07.52-.14.69-.21v1.06a4.49 4.49 0 01-2.07.23zm3.96-8.72a.75.75 0 01-.53-.21.75.75 0 01-.21-.54c0-.2.07-.37.2-.51a.75.75 0 01.54-.21c.2 0 .37.07.52.22.15.14.22.3.22.5s-.07.39-.22.54a.73.73 0 01-.52.2zm.57 8.62h-1.12V3.58h1.12V11zm5.4.14a3.9 3.9 0 01-1.94-.5 3.87 3.87 0 01-1.92-3.34 3.94 3.94 0 013.86-3.86c.7 0 1.35.18 1.93.53.6.35 1.05.82 1.39 1.42a3.78 3.78 0 01-1.4 5.25c-.58.33-1.22.5-1.92.5zm0-1.08a2.68 2.68 0 002.35-1.36c.26-.42.38-.89.38-1.41 0-.51-.12-.98-.38-1.4a2.65 2.65 0 00-2.35-1.37 2.72 2.72 0 00-2.37 1.37c-.25.42-.37.89-.37 1.4a2.78 2.78 0 001.38 2.42c.42.24.88.35 1.36.35zm5.26.94V3.58h.91l.24 1.16.3-.3a3.39 3.39 0 012.4-1c.85 0 1.54.23 2.05.7.28.25.49.56.63.92.15.36.22.75.22 1.18V11H210V6.5c0-.7-.2-1.23-.6-1.59-.34-.32-.84-.48-1.48-.48-.5 0-.97.13-1.4.4a3.4 3.4 0 00-1.03.99V11h-1.12zm10.72.14a5.38 5.38 0 01-2.66-.66l.02-1.06a4.88 4.88 0 002.59.74c.61 0 1.1-.1 1.48-.3.19-.09.33-.21.44-.37.1-.16.15-.34.15-.53 0-.3-.13-.55-.38-.73a1.93 1.93 0 00-.57-.28c-.22-.08-.56-.17-1.04-.3-.56-.15-1-.28-1.31-.4-.32-.12-.6-.3-.82-.52a1.6 1.6 0 01-.5-1.23c0-.63.27-1.12.78-1.49a3.7 3.7 0 012.12-.57c.99 0 1.8.16 2.46.49l-.01 1.06a4.77 4.77 0 00-2.3-.56c-.6 0-1.08.11-1.44.33-.3.17-.45.41-.46.71 0 .24.1.45.3.62.14.15.34.27.58.36.24.08.6.19 1.08.3.5.14.88.26 1.17.36.3.1.54.23.74.39.5.34.75.82.75 1.46 0 .38-.1.72-.28 1.02-.19.29-.45.52-.79.7-.53.3-1.23.46-2.1.46zM3.25 31.13l-.44.01c-.68 0-1.23-.16-1.66-.49-.43-.33-.65-.84-.65-1.54 0-.67.27-1.2.8-1.58a5.2 5.2 0 012.26-.83c.64-.1 1.14-.19 1.5-.26.36-.08.54-.15.54-.23v-.15c0-1.07-.62-1.6-1.85-1.6a5.82 5.82 0 00-2.67.69v-1.02a6.05 6.05 0 012.65-.69c2 0 2.99.89 2.99 2.66l.01 4.9h-.85l-.18-.59a7.9 7.9 0 01-2.45.72zm.35-.93a5.61 5.61 0 002-.71v-2.4c-.14.08-.47.16-.98.26l-.9.15c-.72.12-1.26.31-1.6.57-.34.26-.51.58-.51.98s.12.7.36.91c.26.2.6.3 1.04.3.11 0 .3-.02.59-.06zm8.27.94a3.84 3.84 0 01-2.69-1.15 3.86 3.86 0 01-.83-4.2 3.73 3.73 0 012.07-2.04 3.82 3.82 0 013.6.3v1.07a3.08 3.08 0 00-3.98.17 2.62 2.62 0 00-.87 1.97c0 .38.07.73.21 1.08a2.95 2.95 0 002.76 1.76c.67 0 1.3-.22 1.9-.65v1.06c-.6.42-1.32.63-2.17.63zm3.85-.13v-7.43h.92l.2 1.16c.21-.29.54-.57.98-.85a2.9 2.9 0 011.6-.44c.56 0 1.02.08 1.4.23l-.12 1.13c-.3-.16-.7-.24-1.16-.24l-.53.03c-.48.03-.9.17-1.28.44-.37.26-.67.57-.9.93v5.04h-1.11zm9.66.13a3.9 3.9 0 01-1.94-.5 3.87 3.87 0 01-1.92-3.34 3.95 3.95 0 013.86-3.86c.7 0 1.35.18 1.94.53.58.35 1.04.82 1.38 1.42a3.77 3.77 0 01-1.4 5.25c-.58.33-1.22.5-1.92.5zm0-1.08a2.67 2.67 0 002.35-1.36c.26-.42.38-.89.38-1.41 0-.51-.12-.98-.38-1.4a2.64 2.64 0 00-2.35-1.37 2.72 2.72 0 00-2.36 1.37c-.25.42-.38.89-.38 1.4a2.77 2.77 0 001.38 2.42c.43.24.88.35 1.36.35zM33 31.14a5.38 5.38 0 01-2.66-.66l.01-1.06a4.88 4.88 0 002.59.74c.62 0 1.11-.1 1.49-.3.18-.09.33-.21.43-.37.1-.16.15-.34.15-.53 0-.3-.12-.55-.37-.73a1.93 1.93 0 00-.58-.28c-.21-.08-.56-.17-1.03-.3-.56-.15-1-.28-1.32-.4-.32-.12-.59-.3-.81-.52a1.6 1.6 0 01-.5-1.23c0-.63.26-1.12.78-1.49a3.7 3.7 0 012.11-.57c1 0 1.81.16 2.47.49l-.02 1.06a4.77 4.77 0 00-2.3-.56c-.6 0-1.07.11-1.44.33-.3.17-.45.41-.46.71 0 .24.1.45.3.62.14.15.34.27.58.36.25.08.6.19 1.08.3.5.14.89.26 1.18.36.29.1.53.23.74.39.5.34.74.82.74 1.46 0 .38-.1.72-.28 1.02-.19.29-.45.52-.78.7-.53.3-1.23.46-2.1.46zm6.94 0a5.37 5.37 0 01-2.66-.66l.02-1.06a4.88 4.88 0 002.59.74c.61 0 1.1-.1 1.48-.3.19-.09.33-.21.43-.37.1-.16.16-.34.16-.53 0-.3-.13-.55-.38-.73a1.93 1.93 0 00-.57-.28 14.1 14.1 0 00-1.04-.3c-.56-.15-1-.28-1.32-.4-.31-.12-.58-.3-.8-.52a1.6 1.6 0 01-.51-1.23c0-.63.27-1.12.78-1.49a3.7 3.7 0 012.12-.57c.99 0 1.8.16 2.46.49l-.01 1.06a4.77 4.77 0 00-2.3-.56c-.6 0-1.08.11-1.44.33-.3.17-.45.41-.46.71 0 .24.1.45.3.62.14.15.34.27.58.36.24.08.6.19 1.08.3.5.14.88.26 1.17.36.3.1.54.23.74.39.5.34.75.82.75 1.46 0 .38-.1.72-.28 1.02-.19.29-.45.52-.79.7-.53.3-1.23.46-2.1.46zM48.8 31v-7.42h.88l.24 1.04c.24-.31.53-.56.85-.75.46-.29.96-.43 1.5-.43.58 0 1.07.13 1.49.4.39.23.68.54.86.94.23-.29.46-.52.69-.7a2.99 2.99 0 011.89-.64c.66 0 1.23.18 1.7.53.28.24.5.53.65.9a3 3 0 01.23 1.17V31h-1.12v-4.69c0-.66-.19-1.16-.55-1.48-.26-.27-.64-.4-1.15-.4-.58 0-1.06.15-1.45.45a1.86 1.86 0 00-.65.69V31h-1.12v-5.03a1.48 1.48 0 00-.6-1.18 1.77 1.77 0 00-1.18-.36c-.44 0-.85.12-1.2.34-.24.15-.44.33-.6.53-.15.2-.23.33-.24.4V31h-1.12zm16 .14a3.6 3.6 0 01-1.72-.4 3.2 3.2 0 01-1.21-1.15 3.24 3.24 0 01-.44-1.67v-4.34h1.12V28a2 2 0 00.63 1.54c.42.39.96.58 1.61.58.65 0 1.18-.2 1.6-.58a2 2 0 00.63-1.52v-4.44h1.12v4.35a3.13 3.13 0 01-1.65 2.8c-.52.27-1.08.41-1.7.41zm6.34-.14H70V20.96h1.12V31zm4.45.1c-.22-.03-.42-.1-.62-.2-.39-.2-.66-.52-.8-.94a2.97 2.97 0 01-.14-.95v-4.44h-1.4v-.99h1.4V21.2h1.12v2.38h2.17l-.3 1h-1.87v4.15c0 .4.03.66.09.81.1.2.23.36.42.45.19.09.38.13.59.13.2 0 .44-.03.72-.1.3-.07.52-.14.7-.21v1.06a4.49 4.49 0 01-2.08.23zm3.96-8.72a.75.75 0 01-.53-.21.75.75 0 01-.21-.54c0-.2.07-.37.2-.51a.75.75 0 01.54-.21c.2 0 .37.07.52.22.15.14.22.3.22.5s-.07.39-.22.54a.73.73 0 01-.52.2zM80.1 31H79v-7.42h1.12V31zm1.87 2.4v-9.82h.86l.2.85c.26-.24.61-.46 1.07-.67.46-.21.96-.32 1.51-.32.74 0 1.4.17 1.98.52a3.8 3.8 0 011.83 3.3c0 .71-.16 1.36-.47 1.96a3.55 3.55 0 01-3.2 1.92c-.69 0-1.25-.13-1.69-.38-.43-.25-.75-.5-.97-.73v3.38h-1.12zm3.6-3.27a2.62 2.62 0 002.37-1.41 3.05 3.05 0 000-2.86 2.81 2.81 0 00-2.4-1.44c-.4 0-.76.05-1.1.17-.34.12-.62.26-.86.43-.22.17-.38.32-.49.45v3.4c.02.09.13.23.34.44.2.2.49.4.85.57.38.17.8.25 1.3.25zm6.45.87h-1.12V20.96h1.12V31zm5.66.14c-.8 0-1.51-.17-2.14-.5a3.67 3.67 0 01-2.03-3.32 3.73 3.73 0 011.9-3.36 3.9 3.9 0 011.99-.52 3.5 3.5 0 013.23 1.86c.32.56.48 1.17.48 1.82 0 .25 0 .43-.02.52h-6.44c.01.45.14.86.4 1.23.25.37.59.66 1.02.88.44.23.92.35 1.45.37a6 6 0 001.63-.16c.5-.12.93-.29 1.28-.51v1c-.79.46-1.7.69-2.75.69zm2.3-4.3a2.52 2.52 0 00-2.61-2.42 2.76 2.76 0 00-2.31 1.23c-.23.37-.36.76-.4 1.2H100zm9.1 4.3a5.38 5.38 0 01-2.66-.66l.02-1.06a4.88 4.88 0 002.59.74c.62 0 1.11-.1 1.48-.3.19-.09.33-.21.44-.37.1-.16.15-.34.15-.53 0-.3-.13-.55-.38-.73a1.93 1.93 0 00-.57-.28c-.22-.08-.56-.17-1.04-.3-.56-.15-1-.28-1.31-.4-.32-.12-.6-.3-.81-.52a1.6 1.6 0 01-.5-1.23c0-.63.26-1.12.78-1.49a3.7 3.7 0 012.1-.57c1 0 1.82.16 2.47.49l-.01 1.06a4.77 4.77 0 00-2.3-.56c-.6 0-1.08.11-1.44.33-.3.17-.45.41-.46.71 0 .24.1.45.3.62.14.15.34.27.58.36.24.08.6.19 1.08.3.5.14.89.26 1.18.36.28.1.53.23.74.39.5.34.74.82.74 1.46 0 .38-.1.72-.28 1.02-.19.29-.45.52-.79.7-.53.3-1.23.46-2.1.46zm8.46 0c-.8 0-1.5-.17-2.14-.5a3.68 3.68 0 01-2.03-3.32 3.74 3.74 0 011.9-3.36 3.9 3.9 0 012-.52 3.5 3.5 0 013.23 1.86c.31.56.47 1.17.47 1.82l-.01.52h-6.44c0 .45.14.86.39 1.23s.6.66 1.02.88c.44.23.93.35 1.46.37a6 6 0 001.62-.16c.5-.12.94-.29 1.29-.51v1c-.8.46-1.71.69-2.76.69zm2.31-4.3a2.51 2.51 0 00-1.27-2.08c-.4-.23-.84-.34-1.35-.34a2.76 2.76 0 00-2.3 1.23c-.24.37-.37.76-.4 1.2h5.32zm6.1 4.3a3.83 3.83 0 01-2.69-1.15 3.86 3.86 0 01-.83-4.2 3.73 3.73 0 012.07-2.04 3.82 3.82 0 013.6.3v1.07a3.08 3.08 0 00-4 .17 2.63 2.63 0 00-.87 1.97c.01.38.08.73.22 1.08a2.95 2.95 0 002.76 1.76c.67 0 1.3-.22 1.89-.65v1.06c-.59.42-1.3.63-2.16.63zm6.44-.04c-.22-.03-.42-.1-.62-.2-.39-.2-.66-.52-.8-.94a2.97 2.97 0 01-.13-.95v-4.44h-1.42v-.99h1.41V21.2h1.13v2.38h2.16l-.3 1h-1.87v4.15c0 .4.03.66.09.81.1.2.23.36.42.45.19.09.38.13.59.13.2 0 .44-.03.72-.1.3-.07.52-.14.7-.21v1.06a4.49 4.49 0 01-2.08.23zm6.4.04a3.9 3.9 0 01-1.94-.5 3.87 3.87 0 01-1.92-3.34c0-.69.17-1.33.52-1.91a3.95 3.95 0 013.34-1.95c.7 0 1.35.18 1.94.53.58.35 1.05.82 1.38 1.42a3.78 3.78 0 01-1.4 5.25c-.58.33-1.22.5-1.91.5zm0-1.08a2.68 2.68 0 002.35-1.36c.26-.42.38-.89.38-1.41 0-.51-.12-.98-.37-1.4a2.65 2.65 0 00-2.35-1.37 2.72 2.72 0 00-2.37 1.37c-.25.42-.38.89-.38 1.4a2.77 2.77 0 001.39 2.42c.42.24.87.35 1.36.35zm5.27.95v-7.43h.92l.2 1.16c.21-.29.54-.57.98-.85a3.75 3.75 0 013-.21l-.12 1.13c-.3-.16-.7-.24-1.16-.24l-.53.03c-.48.03-.9.17-1.28.44-.37.26-.67.57-.9.93v5.04h-1.11zm8.7.13a5.36 5.36 0 01-2.66-.66l.02-1.06a4.88 4.88 0 002.59.74c.62 0 1.11-.1 1.49-.3.18-.09.33-.21.43-.37.1-.16.15-.34.15-.53 0-.3-.12-.55-.38-.73a1.94 1.94 0 00-.57-.28c-.21-.08-.56-.17-1.03-.3-.56-.15-1-.28-1.32-.4-.32-.12-.59-.3-.81-.52a1.6 1.6 0 01-.5-1.23c0-.63.26-1.12.78-1.49a3.7 3.7 0 012.11-.57c.99 0 1.81.16 2.47.49l-.02 1.06a4.78 4.78 0 00-2.3-.56c-.6 0-1.07.11-1.44.33-.3.17-.45.41-.46.71 0 .24.1.45.3.62.14.15.34.27.58.36.25.08.6.19 1.08.3.5.14.89.26 1.18.36.29.1.53.23.74.39.5.34.74.82.74 1.46 0 .38-.1.72-.28 1.02-.19.29-.45.52-.78.7-.53.3-1.23.46-2.1.46zm5.1-.07a.75.75 0 01-.53-.21.75.75 0 01-.2-.53c0-.2.06-.37.2-.5a.75.75 0 01.53-.22c.2 0 .37.07.5.21.15.14.22.31.22.5 0 .21-.07.4-.21.54a.69.69 0 01-.5.21z" fill="#0A0B0D"/></svg>