<svg width="163" height="36" viewBox="0 0 163 36" fill="none" xmlns="http://www.w3.org/2000/svg"><rect width="163" height="36" rx="4" fill="#FF9D34"/><path d="M25.07 14.98h-5.65v2.35h5.03l-.55 2.11h-4.48V24h-2.3v-9.6a6.88 6.88 0 00-.32-1.6h8.27v2.18zM29 24h-2.3V12.8H29V24zM39 12.8h2.3V24h-1.7l-6.04-7.18V24h-2.3v-9.6a6.88 6.88 0 00-.32-1.6h2.01L39 19.98V12.8zm8.97 0c.97 0 1.85.25 2.64.74s1.4 1.16 1.85 2.01c.45.86.68 1.8.68 2.85v.03c0 1.03-.23 1.96-.68 2.82a5.28 5.28 0 01-1.85 2.01 4.9 4.9 0 01-2.64.74h-4.43v-9.6a6.88 6.88 0 00-.32-1.6h4.75zm2.88 5.6c0-.53-.1-1.06-.32-1.58-.2-.53-.53-.96-.98-1.32a2.66 2.66 0 00-1.7-.52h-2.01v6.84h2.02c.68 0 1.24-.17 1.7-.52.44-.36.77-.8.97-1.32.21-.52.32-1.04.32-1.55v-.03zm14.25 5.8a5.83 5.83 0 01-5.06-2.89 5.8 5.8 0 01-.76-2.93 5.68 5.68 0 012.88-4.99 5.74 5.74 0 015.82 0 5.73 5.73 0 012.13 7.9 5.9 5.9 0 01-5.01 2.9zm0-2.18a3.39 3.39 0 003.02-1.81c.31-.56.47-1.16.47-1.83a3.6 3.6 0 00-1.71-3.12 3.39 3.39 0 00-1.78-.48 3.47 3.47 0 00-3.07 1.8 3.7 3.7 0 00-.45 1.8 3.6 3.6 0 001.71 3.15 3.5 3.5 0 001.8.49zm12.35 2.17c-.85 0-1.64-.2-2.37-.59a4.67 4.67 0 01-2.42-4.11V12.8h2.3v6.72c0 .51.12.95.36 1.33.24.36.55.64.93.83.38.2.77.29 1.18.29h.03a2.4 2.4 0 002.06-1.09c.24-.36.36-.79.36-1.28v-6.8h2.3v6.69a4.58 4.58 0 01-4.72 4.7h-.01zm6.5-11.39h9.16v2.18h-3.44V24h-2.3v-9.02h-3.42V12.8zm25.44 0h1.73V24h-2.3v-6.38l-2.82 4.17h-1.2l-2.82-4.17V24h-2.3v-9.6a6.88 6.88 0 00-.32-1.6h2.01l4.02 6.08 4-6.08zm9.33 11.4a5.83 5.83 0 01-5.05-2.89 5.8 5.8 0 01-.77-2.93 5.68 5.68 0 012.88-4.99 5.74 5.74 0 015.82 0 5.73 5.73 0 012.13 7.9 5.88 5.88 0 01-5 2.9zm0-2.18a3.38 3.38 0 003.03-1.81c.3-.56.46-1.16.46-1.83 0-.66-.15-1.26-.46-1.8a3.35 3.35 0 00-3.03-1.8 3.48 3.48 0 00-3.07 1.8 3.7 3.7 0 00-.45 1.8 3.6 3.6 0 001.71 3.15 3.5 3.5 0 001.81.49zm17.2 1.98h-2.75l-3.4-4.94c1-.4 1.7-.7 2.12-.88.41-.2.73-.43.94-.68.22-.24.34-.56.34-.94 0-.5-.16-.86-.48-1.12-.31-.27-.78-.4-1.4-.4h-2.38V24h-2.3v-9.6a6.75 6.75 0 00-.32-1.6h5.07c.8 0 1.5.15 2.13.46.63.3 1.11.73 1.45 1.3.35.55.53 1.21.53 1.97 0 .53-.09.99-.26 1.37-.17.38-.43.72-.8 1.03-.36.3-.86.63-1.5.97l3 4.1zm3.58-2.18h5.88l-.54 2.18h-7.65v-9.6a6.94 6.94 0 00-.32-1.6h8.3v2.18h-5.67v2.38h5.08v2.11h-5.08v2.35z" fill="#000"/></svg>