<svg width="234" height="35" viewBox="0 0 234 35" fill="none" xmlns="http://www.w3.org/2000/svg"><path d="M2.13 6.65V9.9H7.8L7.51 11H.97V1.2H7.8v1.1H2.13v3.28h5.15v1.07H2.13zm8.1 4.35h-1.3l2.86-3.85-2.87-3.57h1.32l2.24 2.87 2.22-2.87h1.32l-2.87 3.57L16.02 11H14.7l-2.22-3.1-2.24 3.1zm7.04 2.4V3.59h.86l.2.85c.26-.24.62-.46 1.07-.67.46-.21.96-.32 1.51-.32.74 0 1.4.17 1.98.52.58.34 1.03.81 1.34 1.4a4.11 4.11 0 01.01 3.86 3.55 3.55 0 01-3.19 1.92c-.69 0-1.25-.13-1.69-.38-.43-.25-.75-.5-.97-.73v3.38h-1.12zm3.6-3.27a2.62 2.62 0 002.37-1.41 3.05 3.05 0 000-2.86 2.81 2.81 0 00-2.4-1.44c-.4 0-.76.05-1.1.17-.34.12-.62.26-.86.43-.22.17-.38.32-.49.45v3.4c.02.09.14.23.34.44.2.2.5.4.85.57.38.17.8.25 1.3.25zm6.45.87H26.2V.96h1.12V11zm5.35.14a3.9 3.9 0 01-1.95-.5 3.87 3.87 0 01-1.91-3.34c0-.69.17-1.33.51-1.91a3.95 3.95 0 013.35-1.95c.7 0 1.34.18 1.93.53.59.35 1.05.82 1.39 1.42a3.77 3.77 0 01-1.4 5.25c-.58.33-1.22.5-1.92.5zm0-1.08a2.67 2.67 0 002.35-1.36c.25-.42.38-.89.38-1.41 0-.51-.13-.98-.38-1.4a2.64 2.64 0 00-2.35-1.37 2.72 2.72 0 00-2.37 1.37c-.25.42-.37.89-.37 1.4a2.77 2.77 0 001.38 2.42c.42.24.87.35 1.36.35zm5.26.95V3.58h.93l.2 1.16c.2-.29.54-.57.97-.85a2.9 2.9 0 011.61-.44c.55 0 1.02.08 1.39.23l-.11 1.13c-.31-.16-.7-.24-1.16-.24l-.54.03c-.47.03-.9.17-1.27.44-.37.26-.67.57-.9.93v5.04h-1.12zm9.98.13c-.8 0-1.51-.17-2.14-.5a3.67 3.67 0 01-2.03-3.32 3.73 3.73 0 011.9-3.36 3.9 3.9 0 011.99-.52 3.5 3.5 0 013.23 1.86c.32.56.48 1.17.48 1.82 0 .25 0 .43-.02.52h-6.44c.01.45.14.86.4 1.23.25.37.59.66 1.02.88.44.23.92.35 1.45.37a6 6 0 001.63-.16c.5-.12.93-.29 1.29-.51v1c-.8.46-1.72.69-2.76.69zm2.3-4.3a2.52 2.52 0 00-2.61-2.42 2.76 2.76 0 00-2.31 1.23c-.23.37-.36.76-.4 1.2h5.33zm9.41 4.26c-.21-.03-.42-.1-.61-.2-.4-.2-.66-.52-.81-.94a2.97 2.97 0 01-.13-.95V4.57h-1.41v-.99h1.41V1.2h1.12v2.38h2.17l-.3 1h-1.87v4.15c0 .4.03.66.08.81.1.2.24.36.42.45.19.09.39.13.6.13.19 0 .43-.03.72-.1s.52-.14.69-.21v1.06a4.49 4.49 0 01-2.08.23zm3.36-.1V.96h1.12v3.78l.27-.28c.17-.17.39-.33.67-.5a3.26 3.26 0 011.76-.52c.85 0 1.53.23 2.05.7.56.5.84 1.2.84 2.1V11h-1.12V6.53c0-.68-.18-1.2-.53-1.56-.34-.36-.84-.54-1.49-.54a2.74 2.74 0 00-2.06.89c-.16.17-.29.34-.39.5V11h-1.12zm11.92.14c-.8 0-1.51-.17-2.15-.5a3.67 3.67 0 01-2.03-3.32 3.73 3.73 0 011.9-3.36 3.9 3.9 0 012-.52 3.5 3.5 0 013.23 1.86c.32.56.48 1.17.48 1.82 0 .25 0 .43-.02.52h-6.44c.01.45.14.86.4 1.23.25.37.59.66 1.02.88.43.23.92.35 1.45.37a6 6 0 001.63-.16c.5-.12.93-.29 1.28-.51v1c-.79.46-1.7.69-2.75.69zm2.3-4.3a2.52 2.52 0 00-2.61-2.42 2.76 2.76 0 00-2.31 1.23c-.24.37-.37.76-.4 1.2h5.33zm9.41 4.26c-.21-.03-.42-.1-.61-.2-.4-.2-.67-.52-.82-.94a2.97 2.97 0 01-.12-.95V4.57h-1.42v-.99h1.42V1.2h1.12v2.38h2.17l-.31 1h-1.86v4.15c0 .4.03.66.08.81.1.2.24.36.42.45.19.09.38.13.59.13.2 0 .44-.03.73-.1s.52-.14.68-.21v1.06a4.49 4.49 0 01-2.07.23zm3.33-.09V3.58h.93l.2 1.16c.2-.29.53-.57.97-.85a2.9 2.9 0 011.61-.44c.55 0 1.01.08 1.39.23l-.11 1.13c-.31-.16-.7-.24-1.17-.24l-.53.03c-.47.03-.9.17-1.27.44-.38.26-.67.57-.9.93v5.04h-1.12zm8.52.12l-.44.01c-.68 0-1.23-.16-1.66-.49-.43-.33-.65-.84-.65-1.54 0-.67.27-1.2.8-1.58a5.2 5.2 0 012.26-.83c.64-.1 1.14-.19 1.5-.26.36-.08.54-.15.54-.23v-.15c0-1.07-.62-1.6-1.85-1.6a5.82 5.82 0 00-2.67.69V4.13a6.05 6.05 0 012.65-.69c2 0 3 .89 3 2.66V11h-.85l-.18-.59a7.88 7.88 0 01-2.45.72zm.35-.93a5.61 5.61 0 002-.71v-2.4c-.14.08-.47.16-.98.26l-.9.15c-.72.12-1.26.31-1.6.57-.34.26-.5.58-.5.98s.11.7.35.91c.26.2.6.3 1.04.3.11 0 .3-.02.59-.06zm4.95.8V3.58h.91l.24 1.16.3-.3a3.39 3.39 0 012.4-1c.85 0 1.53.23 2.05.7.28.25.49.56.63.92a3 3 0 01.22 1.18V11h-1.12V6.5c0-.7-.2-1.23-.6-1.59-.35-.32-.84-.48-1.48-.48-.5 0-.98.13-1.4.4a3.37 3.37 0 00-1.03.99V11h-1.12zm10.72.14a5.36 5.36 0 01-2.66-.66l.02-1.06a4.88 4.88 0 002.59.74c.61 0 1.1-.1 1.48-.3.19-.09.33-.21.43-.37.1-.16.16-.34.16-.53 0-.3-.13-.55-.38-.73a1.94 1.94 0 00-.57-.28c-.22-.08-.56-.17-1.04-.3-.56-.15-1-.28-1.32-.4-.31-.12-.58-.3-.8-.52a1.6 1.6 0 01-.51-1.23c0-.63.27-1.12.78-1.49a3.7 3.7 0 012.12-.57c.98 0 1.8.16 2.46.49l-.01 1.06a4.78 4.78 0 00-2.3-.56c-.6 0-1.08.11-1.44.33-.3.17-.45.41-.46.71 0 .24.1.45.29.62.15.15.35.27.59.36.24.08.6.19 1.08.3.49.14.88.26 1.17.36.3.1.54.23.74.39.5.34.75.82.75 1.46 0 .38-.1.72-.28 1.02-.2.29-.45.52-.79.7-.53.3-1.23.46-2.1.46zm6.97-.01l-.43.01c-.68 0-1.24-.16-1.66-.49-.43-.33-.65-.84-.65-1.54 0-.67.27-1.2.8-1.58a5.2 5.2 0 012.25-.83c.65-.1 1.15-.19 1.5-.26.36-.08.55-.15.55-.23v-.15c0-1.07-.62-1.6-1.85-1.6a5.82 5.82 0 00-2.67.69V4.13a6.05 6.05 0 012.65-.69c1.99 0 2.99.89 2.99 2.66l.01 4.9h-.85l-.19-.59a7.88 7.88 0 01-2.45.72zm.36-.93a5.61 5.61 0 002-.71v-2.4c-.14.08-.47.16-.98.26l-.9.15c-.73.12-1.26.31-1.6.57-.34.26-.51.58-.51.98s.12.7.36.91c.25.2.6.3 1.04.3.1 0 .3-.02.59-.06zm8.27.94a3.83 3.83 0 01-2.69-1.15 3.86 3.86 0 01-.83-4.2 3.73 3.73 0 012.07-2.04 3.82 3.82 0 013.6.3v1.07a3.08 3.08 0 00-3.98.17 2.63 2.63 0 00-.87 1.97c0 .38.07.73.21 1.08a2.95 2.95 0 002.76 1.76c.67 0 1.3-.22 1.89-.65v1.06c-.59.42-1.3.63-2.16.63zm6.45-.04c-.22-.03-.42-.1-.62-.2-.39-.2-.66-.52-.81-.94a2.97 2.97 0 01-.13-.95V4.57h-1.41v-.99h1.41V1.2h1.12v2.38h2.17l-.3 1h-1.87v4.15c0 .4.03.66.09.81.1.2.23.36.42.45.19.09.38.13.59.13.2 0 .44-.03.72-.1.3-.07.52-.14.69-.21v1.06a4.49 4.49 0 01-2.07.23zm3.96-8.72a.75.75 0 01-.53-.21.75.75 0 01-.21-.54c0-.2.07-.37.2-.51a.75.75 0 011.06.01c.15.14.22.3.22.5s-.07.39-.22.54a.74.74 0 01-.52.2zm.57 8.62h-1.12V3.58h1.12V11zm5.4.14a3.9 3.9 0 01-1.95-.5 3.87 3.87 0 01-1.91-3.34c0-.69.17-1.33.52-1.91a3.95 3.95 0 013.34-1.95c.7 0 1.34.18 1.93.53.6.35 1.05.82 1.39 1.42a3.78 3.78 0 01-1.4 5.25c-.58.33-1.22.5-1.92.5zm0-1.08a2.68 2.68 0 002.35-1.36c.25-.42.38-.89.38-1.41 0-.51-.13-.98-.38-1.4a2.65 2.65 0 00-2.35-1.37 2.72 2.72 0 00-2.37 1.37c-.25.42-.37.89-.37 1.4a2.77 2.77 0 001.38 2.42c.42.24.88.35 1.36.35zm5.26.94V3.58h.91l.24 1.16.3-.3a3.39 3.39 0 012.4-1c.85 0 1.53.23 2.05.7.28.25.49.56.63.92a3 3 0 01.22 1.18V11h-1.12V6.5c0-.7-.2-1.23-.6-1.59-.34-.32-.84-.48-1.48-.48-.5 0-.97.13-1.4.4a3.37 3.37 0 00-1.03.99V11h-1.12zm10.72.14a5.36 5.36 0 01-2.66-.66l.02-1.06a4.88 4.88 0 002.59.74c.61 0 1.1-.1 1.48-.3a.96.96 0 00.59-.91c0-.3-.13-.54-.38-.72a1.94 1.94 0 00-.57-.28c-.22-.08-.56-.17-1.04-.3-.56-.15-1-.28-1.31-.4-.32-.12-.6-.3-.82-.52a1.6 1.6 0 01-.5-1.23c0-.63.27-1.12.78-1.49a3.7 3.7 0 012.12-.57c.99 0 1.8.16 2.46.49l-.01 1.06a4.78 4.78 0 00-2.3-.56c-.6 0-1.08.11-1.44.33-.3.17-.45.41-.46.71 0 .24.1.45.3.62.14.15.34.27.58.36.24.08.6.19 1.08.3.5.14.88.26 1.17.36.3.1.54.23.75.39.49.34.74.82.74 1.46 0 .38-.1.72-.28 1.02-.19.29-.45.52-.79.7-.53.3-1.23.46-2.1.46zm12.3 0c-.73 0-1.39-.17-1.97-.5a3.6 3.6 0 01-1.36-1.39 4 4 0 01-.48-1.97c0-.7.15-1.33.47-1.92.32-.59.76-1.06 1.32-1.4a3.53 3.53 0 011.89-.52 3.76 3.76 0 012.38.81l.3.27V.96h1.11V11h-.87l-.2-.84a3.7 3.7 0 01-1.07.67c-.46.2-.96.31-1.51.31zm.19-.98c.37 0 .72-.06 1.05-.18.33-.12.6-.26.83-.42.23-.17.39-.32.47-.45V5.68a2.59 2.59 0 00-1.1-.94c-.42-.2-.88-.3-1.4-.3a2.66 2.66 0 00-2.37 1.43c-.22.44-.34.9-.34 1.42a2.72 2.72 0 002.86 2.87zm9.12.98c-.8 0-1.5-.17-2.14-.5a3.68 3.68 0 01-2.03-3.32 3.74 3.74 0 011.9-3.36 3.9 3.9 0 012-.52A3.5 3.5 0 01187 5.3c.31.56.47 1.17.47 1.82l-.01.52h-6.44c0 .45.14.86.39 1.23s.6.66 1.02.88c.44.23.93.35 1.46.37a6 6 0 001.62-.16c.5-.12.94-.29 1.29-.51v1c-.8.46-1.71.69-2.76.69zm2.31-4.3a2.51 2.51 0 00-1.27-2.08c-.4-.23-.84-.34-1.35-.34a2.76 2.76 0 00-2.3 1.23c-.24.37-.37.76-.4 1.2h5.32zM190.1 11h-1.12V.96h1.12V11zm2.47-8.62a.75.75 0 01-.53-.21.75.75 0 01-.2-.54c0-.2.06-.37.2-.51a.75.75 0 011.05.01c.15.14.23.3.23.5s-.08.39-.23.54a.74.74 0 01-.52.2zm.58 8.62h-1.12V3.58h1.12V11zm5.36 0h-.99l-3.19-7.42h1.22l2.47 5.85 2.46-5.85h1.22l-3.2 7.42zm7.77.14c-.8 0-1.5-.17-2.14-.5a3.67 3.67 0 01-2.03-3.32 3.73 3.73 0 011.9-3.36 3.9 3.9 0 011.99-.52 3.5 3.5 0 013.23 1.86c.32.56.48 1.17.48 1.82l-.01.52h-6.44c0 .45.13.86.39 1.23.25.37.59.66 1.02.88.44.23.92.35 1.46.37a6 6 0 001.62-.16c.5-.12.93-.29 1.29-.51v1c-.8.46-1.72.69-2.76.69zm2.3-4.3a2.52 2.52 0 00-2.6-2.42 2.76 2.76 0 00-2.32 1.23c-.23.37-.36.76-.4 1.2h5.33zm2.56 4.17V3.58h.92l.2 1.16c.21-.29.54-.57.98-.85a2.9 2.9 0 011.6-.44c.56 0 1.02.08 1.4.23l-.12 1.13c-.3-.16-.7-.24-1.16-.24l-.53.03c-.48.03-.9.17-1.27.44-.38.26-.68.57-.9.93v5.04h-1.12zm9.97.13c-.79 0-1.5-.17-2.14-.5a3.67 3.67 0 01-2.03-3.32 3.73 3.73 0 011.9-3.36 3.9 3.9 0 012-.52 3.5 3.5 0 013.23 1.86c.31.56.47 1.17.47 1.82l-.01.52h-6.44c0 .45.14.86.4 1.23.24.37.58.66 1.01.88.44.23.93.35 1.46.37a6 6 0 001.62-.16c.5-.12.94-.29 1.3-.51v1c-.8.46-1.72.69-2.77.69zm2.31-4.3a2.52 2.52 0 00-2.62-2.42 2.76 2.76 0 00-2.3 1.23c-.24.37-.37.76-.4 1.2h5.32zm6.07 4.3c-.74 0-1.4-.17-1.98-.5a3.58 3.58 0 01-1.36-1.39 4 4 0 01-.49-1.97c0-.7.16-1.33.48-1.92.32-.59.76-1.06 1.32-1.4a3.53 3.53 0 011.89-.52 3.77 3.77 0 012.38.81l.29.27V.96h1.12V11h-.87l-.2-.84a3.7 3.7 0 01-1.07.67c-.46.2-.96.31-1.51.31zm.18-.98a3 3 0 001.05-.18c.32-.12.6-.26.82-.42.24-.17.4-.32.48-.45V5.68a2.6 2.6 0 00-1.1-.94c-.42-.2-.88-.3-1.4-.3a2.65 2.65 0 00-2.37 1.43c-.22.44-.34.9-.34 1.42a2.7 2.7 0 002.86 2.87zM4.56 31.14a3.65 3.65 0 01-2.57-1L1.8 31H.92V20.96h1.12v3.64c.15-.15.3-.28.45-.4a3.47 3.47 0 012.25-.76 3.46 3.46 0 013.17 1.92c.3.58.46 1.22.46 1.92a4 4 0 01-.49 1.97 3.49 3.49 0 01-1.34 1.39c-.58.33-1.24.5-1.98.5zm-.08-.98c.83-.04 1.5-.32 2-.84.5-.53.76-1.2.76-2.03 0-.51-.11-.99-.34-1.43a2.55 2.55 0 00-.95-1.03c-.4-.27-.86-.4-1.39-.4-.5 0-.96.11-1.41.33a2.87 2.87 0 00-1.1.99v3.33c.08.14.24.3.47.48.24.17.53.31.87.43.34.12.7.18 1.09.17zm4.34-6.58h1.22l2.62 5.9 2.56-5.9h1.22l-3.39 7.77c-.23.52-.42.91-.56 1.18-.14.26-.32.5-.54.72-.23.23-.52.4-.87.52a3.18 3.18 0 01-1.88.06v-1.07c.19.09.4.13.66.13.32 0 .6-.05.83-.14.32-.12.58-.32.75-.59.18-.27.4-.68.65-1.23l-3.27-7.35zm16.22 7.56a3.9 3.9 0 01-1.94-.5 3.87 3.87 0 01-1.92-3.34 3.95 3.95 0 013.86-3.86c.7 0 1.35.18 1.93.53.6.35 1.05.82 1.39 1.42a3.77 3.77 0 01-1.4 5.25c-.58.33-1.22.5-1.92.5zm0-1.08a2.67 2.67 0 002.35-1.36c.26-.42.38-.89.38-1.41 0-.51-.12-.98-.38-1.4a2.64 2.64 0 00-2.35-1.37 2.72 2.72 0 00-2.36 1.37c-.26.42-.38.89-.38 1.4a2.77 2.77 0 001.38 2.42c.42.24.88.35 1.36.35zm8.38 1.08a3.6 3.6 0 01-1.71-.4 3.2 3.2 0 01-1.22-1.15 3.24 3.24 0 01-.43-1.67v-4.34h1.12V28a2 2 0 00.63 1.54c.42.39.95.58 1.6.58.65 0 1.18-.2 1.6-.58a2 2 0 00.63-1.52v-4.44h1.12v4.35a3.13 3.13 0 01-1.65 2.8c-.51.27-1.08.41-1.7.41zm5.17-.13v-7.43h.92l.2 1.16c.21-.29.54-.57.98-.85a2.9 2.9 0 011.61-.44c.55 0 1.01.08 1.39.23l-.12 1.13c-.3-.16-.7-.24-1.16-.24l-.53.03c-.48.03-.9.17-1.27.44-.38.26-.68.57-.9.93v5.04h-1.12zm12.93.12l-.43.01c-.68 0-1.24-.16-1.67-.49-.43-.33-.64-.84-.64-1.54 0-.67.27-1.2.8-1.58a5.2 5.2 0 012.25-.83c.65-.1 1.14-.19 1.5-.26.36-.08.55-.15.55-.23v-.15c0-1.07-.62-1.6-1.85-1.6a5.82 5.82 0 00-2.68.69v-1.02a6.05 6.05 0 012.65-.69c2 0 3 .89 3 2.66V31h-.84l-.19-.59a7.9 7.9 0 01-2.45.72zm.35-.93a5.61 5.61 0 002-.71v-2.4c-.13.08-.46.16-.97.26l-.9.15c-.73.12-1.27.31-1.61.57-.34.26-.5.58-.5.98s.12.7.36.91c.25.2.6.3 1.04.3.1 0 .3-.02.58-.06zm7.69.8h-.8l-2.73-7.42h1.2l1.98 5.66 1.97-5.66h.73l2 5.66 1.92-5.66h1.2L64.39 31h-.8l-2.02-5.6-2 5.6zm10.83.13l-.43.01c-.68 0-1.24-.16-1.67-.49-.43-.33-.64-.84-.64-1.54 0-.67.26-1.2.8-1.58a5.2 5.2 0 012.25-.83c.64-.1 1.14-.19 1.5-.26.36-.08.54-.15.54-.23v-.15c0-1.07-.61-1.6-1.85-1.6a5.82 5.82 0 00-2.67.69v-1.02a6.05 6.05 0 012.65-.69c2 0 3 .89 3 2.66V31h-.85l-.18-.59a7.9 7.9 0 01-2.45.72zm.35-.93a5.61 5.61 0 002-.71v-2.4c-.14.08-.46.16-.98.26l-.9.15c-.72.12-1.26.31-1.6.57-.34.26-.5.58-.5.98s.11.7.36.91c.25.2.6.3 1.03.3.11 0 .31-.02.6-.06zm4.96.81v-7.43h.92l.2 1.16c.21-.29.54-.57.98-.85a2.9 2.9 0 011.6-.44c.56 0 1.02.08 1.4.23l-.12 1.13c-.3-.16-.7-.24-1.16-.24l-.53.03c-.48.03-.9.17-1.28.44-.37.26-.67.57-.9.93v5.04H75.7zm9.7.13c-.74 0-1.4-.17-1.97-.5a3.59 3.59 0 01-1.36-1.39 4 4 0 01-.49-1.97c0-.7.16-1.33.48-1.92a3.53 3.53 0 013.2-1.92 3.77 3.77 0 012.38.81l.3.27v-3.56h1.12V31h-.87l-.2-.84a3.7 3.7 0 01-1.08.67c-.45.2-.96.31-1.5.31zm.18-.98a3 3 0 001.05-.18c.33-.12.6-.26.83-.42.23-.17.4-.32.48-.45v-3.43a2.6 2.6 0 00-1.1-.94c-.42-.2-.88-.3-1.4-.3a2.65 2.65 0 00-2.37 1.43c-.23.44-.34.9-.34 1.42a2.72 2.72 0 002.86 2.87zm10.13-3.1h-4.83v-1.04h4.83v1.03zm4.65 3.94h-.8l-2.73-7.42h1.2l1.98 5.66 1.97-5.66h.73l2 5.66 1.92-5.66h1.2L105.17 31h-.8l-2.01-5.6-2 5.6zm9.24-8.62a.75.75 0 01-.53-.21.75.75 0 01-.2-.54c0-.2.06-.37.2-.51a.75.75 0 011.05.01c.15.14.22.3.22.5s-.07.39-.22.54a.74.74 0 01-.52.2zm.58 8.62h-1.12v-7.42h1.12V31zm1.9 0v-7.42h.9l.24 1.16.3-.3a3.39 3.39 0 012.4-1c.85 0 1.54.23 2.05.7.28.25.49.56.63.92.15.36.22.75.22 1.18V31h-1.12v-4.5c0-.7-.2-1.23-.6-1.59-.34-.32-.84-.48-1.48-.48-.5 0-.97.13-1.4.4a3.4 3.4 0 00-1.02.99V31h-1.12zm8.42 0v-7.42h.9l.25 1.16.29-.3a3.39 3.39 0 012.4-1c.85 0 1.54.23 2.05.7.28.25.5.56.63.92.15.36.23.75.23 1.18V31h-1.12v-4.5c0-.7-.2-1.23-.6-1.59-.35-.32-.85-.48-1.49-.48-.5 0-.97.13-1.4.4a3.4 3.4 0 00-1.02.99V31h-1.12zm9.05-8.62a.75.75 0 01-.53-.21.75.75 0 01-.21-.54c0-.2.07-.37.2-.51a.75.75 0 01.54-.21c.2 0 .37.07.52.22.15.14.22.3.22.5s-.07.39-.22.54a.73.73 0 01-.52.2zm.57 8.62H129v-7.42h1.12V31zm1.9 0v-7.42h.91l.24 1.16.3-.3a3.39 3.39 0 012.4-1c.85 0 1.53.23 2.05.7.28.25.49.56.63.92a3 3 0 01.22 1.18V31h-1.12v-4.5c0-.7-.2-1.23-.6-1.59-.35-.32-.84-.48-1.48-.48-.5 0-.97.13-1.4.4a3.37 3.37 0 00-1.03.99V31h-1.12zm11.72 3.32c-.43 0-.88-.06-1.38-.17-.5-.11-.92-.28-1.27-.52V32.6c.33.2.74.37 1.23.5.5.14.96.21 1.36.21.75 0 1.4-.18 1.93-.53.53-.36.8-.87.8-1.56v-1.16c-.22.24-.53.47-.95.72-.41.24-.95.36-1.61.36a3.8 3.8 0 01-1.95-.5 3.73 3.73 0 01-1.34-1.4 4.06 4.06 0 01-.48-1.96c0-.71.16-1.36.48-1.94.31-.58.76-1.05 1.33-1.38a3.87 3.87 0 013.5-.2c.46.2.82.43 1.08.67l.2-.86h.86v7.7c0 .7-.18 1.27-.55 1.73-.36.46-.83.8-1.41 1-.58.21-1.2.32-1.83.32zm.29-4.16a2.94 2.94 0 002.06-.8c.2-.2.3-.35.32-.43V25.5a3.14 3.14 0 00-1.36-.9c-.33-.12-.7-.18-1.08-.18a2.7 2.7 0 00-2.42 1.43c-.22.43-.34.9-.34 1.44 0 .53.12 1.02.35 1.46.25.43.58.78 1.01 1.03.43.25.92.38 1.46.38zm12.14.94c-.21-.03-.42-.1-.61-.2-.4-.2-.66-.52-.81-.94a2.97 2.97 0 01-.13-.95v-4.44h-1.41v-.99h1.41V21.2h1.12v2.38h2.17l-.3 1h-1.87v4.15c0 .4.03.66.08.81.1.2.24.36.42.45.2.09.39.13.6.13.19 0 .43-.03.72-.1s.52-.14.69-.21v1.06a4.49 4.49 0 01-2.08.23zm7.03.04c-.8 0-1.5-.17-2.14-.5a3.67 3.67 0 01-2.03-3.32 3.73 3.73 0 011.9-3.36 3.9 3.9 0 012-.52 3.5 3.5 0 013.23 1.86c.31.56.47 1.17.47 1.82l-.01.52h-6.44c0 .45.14.86.4 1.23.24.37.58.66 1.01.88.44.23.93.35 1.46.37a6 6 0 001.62-.16c.5-.12.94-.29 1.3-.51v1c-.8.46-1.72.69-2.77.69zm2.31-4.3a2.52 2.52 0 00-2.61-2.42 2.76 2.76 0 00-2.31 1.23c-.24.37-.37.76-.4 1.2h5.32zm4.93 4.29l-.43.01c-.68 0-1.24-.16-1.67-.49-.43-.33-.64-.84-.64-1.54 0-.67.26-1.2.8-1.58.53-.4 1.28-.67 2.25-.83.64-.1 1.14-.19 1.5-.26.36-.08.54-.15.54-.23v-.15c0-1.07-.61-1.6-1.84-1.6a5.83 5.83 0 00-2.68.69v-1.02a6.05 6.05 0 012.65-.69c2 0 3 .89 3 2.66V31h-.85l-.18-.59a7.88 7.88 0 01-2.45.72zm.35-.93a5.6 5.6 0 002-.71v-2.4c-.14.08-.46.16-.98.26l-.9.15c-.72.12-1.26.31-1.6.57-.34.26-.5.58-.5.98s.12.7.36.91c.25.2.6.3 1.03.3.12 0 .31-.02.6-.06zm4.96.8v-7.42h.88l.24 1.04c.24-.31.52-.56.85-.75.46-.29.96-.43 1.5-.43.58 0 1.07.13 1.48.4.4.23.68.54.87.94.22-.29.45-.52.69-.7a3 3 0 011.89-.64c.66 0 1.22.18 1.69.53.29.24.5.53.66.9.15.35.22.74.22 1.17V31h-1.12v-4.69c0-.66-.18-1.16-.54-1.48-.27-.27-.65-.4-1.15-.4-.58 0-1.07.15-1.46.45a1.88 1.88 0 00-.64.69V31h-1.12v-5.03c0-.21-.05-.42-.16-.63-.1-.21-.25-.4-.44-.54a1.77 1.77 0 00-1.18-.37c-.45 0-.85.12-1.2.34-.25.15-.45.33-.6.53-.16.2-.23.33-.24.4V31h-1.12zm13.1.07a.75.75 0 01-.53-.21.75.75 0 01-.2-.53c0-.2.06-.37.2-.5a.75.75 0 01.53-.22c.2 0 .37.07.5.21.15.14.22.31.22.5 0 .21-.07.4-.21.54a.69.69 0 01-.5.21z" fill="#0A0B0D"/></svg>