<svg width="185" height="54" viewBox="0 0 185 54" fill="none" xmlns="http://www.w3.org/2000/svg"><path d="M19.55 21h-4.47l-1.54-3.94H6.35L4.81 21H.31L7.75 2A12 12 0 007.2.7h4.5L19.55 21zM9.95 6.21l-2.58 7.05h5.13L9.95 6.2zm24.7 2.58V.7h4.17V21h-4.18v-8.27h-8.81V21h-4.18V.7h4.18v8.1h8.81zm11.6 8.27h10.67L55.94 21H42.07V3.6c0-.4-.05-.88-.17-1.42-.12-.54-.25-1.04-.4-1.48h15.05v3.94h-10.3v4.33h9.22v3.82h-9.22v4.27zM77.7 21h-4.47l-1.54-3.94H64.5L62.96 21h-4.5l7.42-19c-.07-.25-.26-.68-.55-1.3h4.5L77.69 21zm-9.6-14.79l-2.58 7.05h5.13L68.1 6.2zM88.06.7c1.76 0 3.35.44 4.78 1.33a9.3 9.3 0 013.37 3.66 10.93 10.93 0 011.21 5.16v.06c0 1.85-.4 3.56-1.21 5.1a9.57 9.57 0 01-3.37 3.66A8.88 8.88 0 0188.06 21h-8.04V3.6c0-.4-.05-.88-.17-1.42-.12-.54-.25-1.04-.4-1.48h8.6zm5.22 10.15c0-.97-.2-1.92-.58-2.87a5.5 5.5 0 00-1.77-2.38 4.82 4.82 0 00-3.08-.96H84.2v12.42h3.65c1.24 0 2.27-.32 3.08-.96a5.51 5.51 0 001.77-2.38 7.4 7.4 0 00.58-2.81v-.06zM113.57 21h-4.18V.7h4.18V21zM131.67.7h4.18V21h-3.08L121.81 7.98V21h-4.18V3.6c0-.4-.05-.88-.17-1.42-.12-.54-.25-1.04-.4-1.48h3.65l10.96 13.02V.7zM12.15 53H8.87L.58 32.7H5.1l5.4 13.8 5.33-13.8h4.53L12.16 53zm14.98-3.94h10.68L36.82 53H22.96V35.6c0-.4-.06-.88-.18-1.42-.11-.54-.25-1.04-.4-1.48h15.05v3.94h-10.3v4.33h9.23v3.82h-9.23v4.27zM58.51 53h-4.98l-6.15-8.96c1.8-.72 3.07-1.25 3.83-1.6a5.33 5.33 0 001.7-1.21c.41-.45.62-1.02.62-1.71 0-.9-.3-1.57-.87-2.04-.57-.48-1.4-.72-2.53-.72h-4.32V53h-4.17V35.6c0-.4-.06-.88-.18-1.42-.11-.54-.25-1.04-.4-1.48h9.19c1.45 0 2.73.28 3.86.84a6 6 0 012.63 2.35c.64 1 .96 2.2.96 3.57 0 .96-.15 1.8-.46 2.5-.31.67-.8 1.29-1.45 1.85-.66.56-1.57 1.15-2.73 1.77L58.51 53zm8.35.35a13.5 13.5 0 01-6.62-1.63v-4.14a11.04 11.04 0 006.5 2.18c1.18 0 2.15-.18 2.9-.53.75-.35 1.13-.9 1.13-1.68 0-.66-.33-1.18-.99-1.57-.63-.4-1.65-.87-3.04-1.39-1.37-.5-2.49-.98-3.34-1.42a6.89 6.89 0 01-2.2-1.83 4.5 4.5 0 01-.93-2.9 5.68 5.68 0 013.37-5.25 9 9 0 014.06-.84c2.41 0 4.47.5 6.17 1.51v4.06a9.26 9.26 0 00-2.72-1.45 8.84 8.84 0 00-3.02-.52c-1.02 0-1.9.17-2.6.52-.72.33-1.08.84-1.08 1.54 0 .65.32 1.19.95 1.6.64.38 1.66.83 3.05 1.36 1.37.5 2.48.97 3.33 1.42a6.64 6.64 0 012.24 1.85c.62.78.93 1.75.93 2.93 0 1.2-.33 2.27-.99 3.22a6.46 6.46 0 01-2.81 2.17c-1.22.53-2.65.79-4.3.79zM95.05 53h-4.47l-1.53-3.94h-7.2L80.32 53h-4.5l7.43-19c-.08-.25-.27-.68-.56-1.3h4.5L95.05 53zm-9.6-14.79l-2.58 7.05H88l-2.55-7.05zm8.46-5.51h16.62v3.94h-6.24V53h-4.18V36.64h-6.2V32.7zm24 20.3h-4.19V32.7h4.18V53zm17.28 0h-13.16V32.7h4.17v16.36h9.98l-.99 3.94zm8.23 0h-4.18V32.7h4.18V53zm3.2-20.3h16.61v3.94H157V53h-4.18V36.64h-6.2V32.7zm32.8 0h4.77l-7.23 13.25V53h-4.17v-7.13l-7.2-13.17h4.8l4.52 8.76 4.52-8.76z" fill="#0A0B0D"/></svg>