<svg width="82" height="90" viewBox="0 0 82 90" fill="none" xmlns="http://www.w3.org/2000/svg"><path d="M47.5 29.8c.54 0 1.05.17 1.53.48l1.75 1.12 1.6-.49 2.36-2.89-5.02-5.11a11 11 0 00-7.93-3.13h-.07a9.78 9.78 0 00-5.7-1.71c-.92 0-1.82.11-2.7.31a15.6 15.6 0 001.73 3.26c-4.9 2.87-8.27 8.78-8.27 15.57 0 1.35.14 2.05.14 2.05s1.61-1.67 3.73-1.67c0 3.34-2.08 6.57-2.08 6.57 5.3 0 14.76 2.55 18.14 4.88 0-1.6-3.38-5.6-6.63-7.76 0 0 9.54 4.21 10.97 11.59 0 0 .72-1.53.72-4.04 0-11.13-14.11-10.82-14.22-20.08-.03-2.47.96-4 .96-4-.22.95-.33 1.92-.34 2.89 0 7.13 7.34 7.45 11.96 11.93l.99-5.46-1.91.63-1.4-.42c-1.54-.45-2.43-1.36-2.43-2.5 0-1.15.89-2.02 2.12-2.02zm-5.82-5.7s1.16-.14 1.98-.14c1.71 0 3.35.6 4.35 1.5l-1.03 1.25c-.89-1.04-3.76-2.47-5.3-2.61zM26.8 67.45l-1.49-2.17c2.09-.84 3.34-2.55 3.34-4.62 0-2.74-2.2-4.63-5.42-4.63H15.9l.24.38c.52.82.8 1.58.8 2.29v9.91c0 .7-.28 1.47-.8 2.29l-.24.38h4.19V58.89h2.94c1.44 0 2.4.82 2.4 2.02 0 1.41-1.15 2.3-4.43 3.13l3.6 5.64a4.43 4.43 0 003.85 2.17c1.48 0 2.08-.63 2.08-.63s-1.5-.5-3.74-3.77M50.56 71.28l-.25-.3a3.5 3.5 0 01-.8-1.87L48.37 58.7c-.08-.7.17-1.45.62-2.29l.2-.38h-4.42l-3.85 8.66-3.86-8.66h-4.41l.2.38c.45.84.7 1.58.62 2.3l-1.14 10.4a3.49 3.49 0 01-.8 1.86l-.25.31h4.06l.91-9.88 4.67 10.45 4.67-10.45.9 9.88h4.07zM63.05 63.18a3.33 3.33 0 001.7-3.03c0-2.46-1.98-4.12-4.92-4.12h-7.34l.25.38c.52.8.8 1.58.8 2.29v9.91c0 .7-.28 1.49-.8 2.29l-.25.38h7.96c3.01 0 5.16-1.87 5.16-4.52 0-1.72-.9-2.96-2.56-3.58zm-3.56-4.42c1.3 0 2.2.72 2.2 1.77s-.9 1.77-2.2 1.77h-2.8v-3.54h2.8zm.66 9.8h-3.47v-3.74h3.47c1.34 0 2.22.72 2.22 1.86 0 1.15-.87 1.87-2.22 1.87" fill="#0A0B0D"/></svg>