<svg xmlns="http://www.w3.org/2000/svg" id="Layer_2" data-name="Layer 2" viewBox="0 0 1456.15 219.44"><defs><style>.cls-2{fill:#fff}</style></defs><path d="M22.91 192.49c19 7.75 32.86 4.36 47.25-4.38 0 0-1.19-12.81-1.19-28.06 0-9.23 2-39 30.69-64.38 1.09-15.39 9.63-27.27 21.75-33.27 0 0-1-4.73-1-6 0-1.89 2.92-21.14 2.92-21.14a29.92 29.92 0 00-5 5.08s-2.89-2-2.89-3.77 4.18-11.25 8.45-16.9 7.38-7.25 11.42-8.6S146 8.9 148.06 8.57A31.8 31.8 0 01153 8c6.48 0 11.68 6.74 18.35 6.74 9.63 0 11.75-1.46 16.54-1.46 3.61 0 5.27.87 7.56 1.31s6.65 1.25 6.65 5.94c0 5.46-14.33 23.37-31.33 26.39a10.71 10.71 0 01-1 5.79 76.33 76.33 0 012 9.65 8.75 8.75 0 01-3.71.38s-3.27 11.41-.85 23.08-3.71 65.5-31.71 87.18-43.63 41.43-52.57 38.87c0 0-6-1.71-8.43-3.06s-2.5-1.59-2.5-2.36a5.58 5.58 0 00-.92-2.76l-3.92 1.81c-.22-1-1.16-1.95-3-2.72-2.65 1.36-5.28 3.89-9.84 3.89s-20.93-1-25.8-4.14c-3.47-2.92-5.52-6.21-5.61-10.04z" transform="translate(-14 -8)" fill="#d2281e" opacity=".9"/><path class="cls-2" d="M144.85 209.38c2.47-5.33 5.87-19 3.75-25.52a24.06 24.06 0 018.5-9.48h1a131.7 131.7 0 002.23 16.92c1.81 9 5.87 23.78 15.81 23.78 4 0 5.56-.84 6.54-3.74a6.2 6.2 0 01-1-3c-6.08-3.92-10.45-11-10.45-15 0-2.67 2.71-24.25 7.41-24.75a132.27 132.27 0 0018.43 6.82s10.06 1.28 14.78 2.56 6.52 2.89 7.17 3.6.14 1.08 1 2.66 3.25 7.3 9.21 7.3c1.93 0 3.66 0 3.66-1.71v-3.88c0-3.85-1.81-4-1.81-4-.89-3.73-1.69-7.51-8.85-13-8.13-6.23-13.57-3.62-18.94-7.47s-9.81-9.9-9.81-17.34 2.37-7.56 2.37-26.25c0-11.75-1.08-26.37-1.08-26.37 4.08-4.55 11.71-14.3 11.71-19.09 0-2.62-1.19-7.07-8.07-7.07-4.78 0-6.68-5-12.43-5-2.91 0-6.13.22-6.13.22a31.32 31.32 0 01-2-10.38h-1.18l-2.58 12.39h-2.86c-3.74 0-6.41-7.51-10.76-7.51-2.25 0-3.73 1.91-3.73 5.79 0 5.77 3.21 15.85 3.21 15.85s-1.13 11.42-1.13 20.36c0 2.28.38 5 .38 6.19 0 8.31-12.33 9.9-23.94 15.5A128.86 128.86 0 00112.91 133C104 140.11 87 167.32 87 186.67c0 15.27.9 23.77.9 23.77s-24 4.64-29.37 4.64c-2.31 0-4.81-1-9.37-.91-17.05-7.18-25.72-15-25.72-28.89 0-6.48 2.47-13.09 3.51-15.59a2.22 2.22 0 00-.19-2.06 3.49 3.49 0 00-3.13-1.9c-3.44 0-5.06 3.13-6.15 5.92S14 181.77 14 185.48c0 3.08 1.26 8.52 2.45 12.55a36.59 36.59 0 0016 20.21c13.13 7.75 28.15 8.18 34.44 8.18 11.81 0 15.87-3.18 26.25-3.18 8.37 0 9.62 1.31 15.41 1.31 8.87 0 18.28-5.63 21.59-5.63h1.31c-.12 1.85 4.09 4.61 6.71 4.84s20.23 1.86 23.83 2.48c3.84.65 4.75 1.2 6.59 1.2 5.33 0 9.46-2.56 9.46-5.62s-5.21-7.58-15.18-7.58h-1a6 6 0 01-1.82-.29c-5.66-1.89-10.87-3.51-15.19-4.57zM300.86 107.24a32 32 0 0110.43 11.56 33.73 33.73 0 010 31.64 31.74 31.74 0 01-10.43 11.62 24.33 24.33 0 01-13.67 4.3h-24.53V193a8.69 8.69 0 01-2.25 6.2 7.75 7.75 0 01-5.92 2.4 7.49 7.49 0 01-5.78-2.47 8.75 8.75 0 01-2.25-6.13v-81.46a8.42 8.42 0 018.59-8.6h32.14a24.41 24.41 0 0113.67 4.3zM292.47 148a16.53 16.53 0 004.23-5.85 18.36 18.36 0 000-15.08 15.86 15.86 0 00-4.23-5.77 8.21 8.21 0 00-5.28-2.19h-24.53v31.19h24.53a8.06 8.06 0 005.28-2.3zM393.59 167.63a9 9 0 01-5.92 2.11h-46.51a21.26 21.26 0 007.75 13 21.67 21.67 0 0013.68 4.72 30 30 0 009-1.06 23.13 23.13 0 005.15-2.25q1.9-1.2 2.61-1.62a10.66 10.66 0 014.79-1.27 6.92 6.92 0 015.07 2.12 6.74 6.74 0 012.12 4.93c0 2.53-1.32 4.84-3.95 6.9a33.48 33.48 0 01-10.57 5.5 41.4 41.4 0 01-13.38 2.29q-11.83 0-20.65-4.93a34.48 34.48 0 01-13.6-13.6 39.7 39.7 0 01-4.79-19.47 43.13 43.13 0 015.08-21.28 36 36 0 0113.38-14 34.66 34.66 0 0117.76-4.86 33 33 0 0117.55 5.07 38 38 0 0113.18 13.67 36.82 36.82 0 014.93 18.6 7.26 7.26 0 01-2.68 5.43zm-52.29-12h36.93v-1a14.57 14.57 0 00-5.78-10.15 18.29 18.29 0 00-11.84-4.23q-16.35.04-19.31 15.4zM450.31 187.57a7.47 7.47 0 011.62 5q0 3.79-4.15 6.41a17.3 17.3 0 01-9.38 2.61q-8.73 0-14.72-3.74t-6-15.85v-38.9h-6.48a7.72 7.72 0 01-7.89-7.89 7.24 7.24 0 012.26-5.43 7.79 7.79 0 015.63-2.18h6.49v-9a8.42 8.42 0 018.59-8.6 7.91 7.91 0 015.92 2.47 8.42 8.42 0 012.4 6.13v9h10a7.71 7.71 0 017.89 7.89 7.24 7.24 0 01-2.26 5.42 7.75 7.75 0 01-5.63 2.19h-10v38.2a5.38 5.38 0 001.55 4.3 6.26 6.26 0 004.23 1.34 12 12 0 003.1-.57 8.57 8.57 0 013.24-.7 4.68 4.68 0 013.59 1.9zM519.44 128.52q7.34 3.73 7.33 9.94a8.5 8.5 0 01-1.83 5.42 5.83 5.83 0 01-4.79 2.33 8.88 8.88 0 01-3.67-.64 12.75 12.75 0 01-2.75-1.69 20.23 20.23 0 00-2.6-1.76 17.93 17.93 0 00-4.16-1.27 23.57 23.57 0 00-4.44-.56q-10.57 0-16.56 6.55T480 164q0 10.14 6.06 16.84a20 20 0 0015.5 6.69c4.6 0 8-.56 10.29-1.69a18.71 18.71 0 002.33-1.48 16.5 16.5 0 012.74-1.62 7.74 7.74 0 013.1-.56 7.15 7.15 0 015.57 2.25 8.3 8.3 0 012 5.78q0 3.39-3.94 6.34a30.72 30.72 0 01-10.43 4.72 52.25 52.25 0 01-13.79 1.73 35.72 35.72 0 01-19.1-5.07 34.06 34.06 0 01-12.75-14 43.64 43.64 0 01-4.51-19.93 42.56 42.56 0 014.72-20.3A34.76 34.76 0 01481 129.79a36.93 36.93 0 0119.16-5q11.96 0 19.28 3.73zM555.73 199.13a8.34 8.34 0 01-6.13 2.47 8 8 0 01-5.92-2.47 8.43 8.43 0 01-2.39-6.13v-87.1a8.41 8.41 0 018.59-8.59 7.94 7.94 0 015.92 2.46 8.46 8.46 0 012.4 6.13V193a8.34 8.34 0 01-2.47 6.13zM645 127.18a8.39 8.39 0 012.39 6.2V193a8.43 8.43 0 01-2.39 6.13 8.12 8.12 0 01-6 2.47 8 8 0 01-6-2.4 8.91 8.91 0 01-2.47-6.06 30.47 30.47 0 01-22.16 9.86 32.17 32.17 0 01-17.62-5 35 35 0 01-12.47-13.88A43.25 43.25 0 01573.7 164a44.3 44.3 0 014.51-20.23 34.62 34.62 0 0112.33-14 31.42 31.42 0 0117.26-5 32.76 32.76 0 0112.69 2.46 33.36 33.36 0 0110 6.28v-.15a8.46 8.46 0 012.4-6.13 8.09 8.09 0 016.06-2.46 8.25 8.25 0 016.05 2.41zm-19.59 53.63q5.77-6.69 5.78-16.84t-5.78-16.91a19.72 19.72 0 00-29.74 0q-5.77 6.76-5.78 16.91t5.71 16.84a18.62 18.62 0 0014.87 6.69 18.82 18.82 0 0014.95-6.69zM660.09 185.67q0-3.66 3.66-6.2a7.44 7.44 0 014.09-1.27 7.91 7.91 0 015.63 2.68 29.83 29.83 0 008.81 6.48 26.28 26.28 0 0011.07 2.12q11-.43 11-8.32a6.75 6.75 0 00-3.74-6.2 52.64 52.64 0 00-11.61-4.23 99.38 99.38 0 01-13.32-4.51 23.55 23.55 0 01-8.88-6.83q-3.74-4.59-3.73-12.33a18.67 18.67 0 013.87-11.77 25.43 25.43 0 0110.15-7.75 32.69 32.69 0 0113.32-2.75 40.8 40.8 0 0114.37 2.68 25 25 0 0111.22 7.89 7.83 7.83 0 011.83 5.07 6.57 6.57 0 01-2.68 5.36 7.13 7.13 0 01-4.51 1.55 6.83 6.83 0 01-5.07-2 18 18 0 00-6.56-4.93 21.64 21.64 0 00-9.01-1.81q-10.71 0-10.71 7.75a6.61 6.61 0 002 5 13.34 13.34 0 005 3q3 1.06 8.53 2.61a93.71 93.71 0 0112.68 4.37 21.76 21.76 0 018.6 6.9c2.34 3.11 3.52 7.19 3.52 12.27a18.78 18.78 0 01-4.09 12 25.84 25.84 0 01-10.5 7.82A33.92 33.92 0 01691.8 203a47.72 47.72 0 01-17.34-3.1 28.85 28.85 0 01-13.11-10 6.89 6.89 0 01-1.26-4.23zM728 185.67c0-2.44 1.21-4.51 3.66-6.2a7.42 7.42 0 014.09-1.27 7.91 7.91 0 015.63 2.68 29.83 29.83 0 008.81 6.48 26.24 26.24 0 0011.07 2.12q11-.43 11-8.32a6.75 6.75 0 00-3.74-6.2 52.64 52.64 0 00-11.62-4.23 98.88 98.88 0 01-13.32-4.51 23.55 23.55 0 01-8.88-6.83q-3.7-4.59-3.7-12.33a18.68 18.68 0 013.88-11.77 25.43 25.43 0 0110.12-7.75 32.68 32.68 0 0113.31-2.75 40.81 40.81 0 0114.38 2.68 24.9 24.9 0 0111.31 7.89 7.78 7.78 0 011.84 5.07 6.57 6.57 0 01-2.68 5.36 7.13 7.13 0 01-4.51 1.55 6.83 6.83 0 01-5.07-2 18 18 0 00-6.56-4.93 21.67 21.67 0 00-9.09-1.83q-10.71 0-10.71 7.75a6.64 6.64 0 002 5 13.47 13.47 0 005 3q3 1.06 8.52 2.61a93.41 93.41 0 0112.69 4.37 21.67 21.67 0 018.59 6.9c2.35 3.11 3.53 7.19 3.53 12.27a18.84 18.84 0 01-4.09 12 25.84 25.84 0 01-10.5 7.82 34 34 0 01-13.24 2.7 47.66 47.66 0 01-17.33-3.1 28.8 28.8 0 01-13.11-10 6.89 6.89 0 01-1.28-4.23zM802.14 115.49q-2-1.56-2-5.5v-2.68q0-3.94 2.12-5.49c1.4-1 3.66-1.55 6.76-1.55 3.29 0 5.59.51 6.9 1.55s2 2.86 2 5.49V110c0 2.73-.68 4.58-2 5.57s-3.68 1.48-7 1.48-5.46-.53-6.78-1.56zm13 83.64a8.67 8.67 0 01-12.12 0 8.44 8.44 0 01-2.4-6.13v-58.21a8.46 8.46 0 012.4-6.13 8.69 8.69 0 0112.12 0 8.46 8.46 0 012.4 6.13V193a8.44 8.44 0 01-2.43 6.13zM864.29 115a10.11 10.11 0 00-2 6v6.63h12.83a7.79 7.79 0 015.63 2.18 8 8 0 010 11.13 7.75 7.75 0 01-5.63 2.19h-12.8V193a8.44 8.44 0 01-2.4 6.13 8.67 8.67 0 01-12.12 0 8.47 8.47 0 01-2.39-6.13v-49.89h-7.61a7.76 7.76 0 01-5.64-2.19 8 8 0 010-11.13 7.79 7.79 0 015.64-2.18h7.61v-6.49q0-10.56 7.26-17.19t20.93-6.62a18.72 18.72 0 019.09 2.11 6.92 6.92 0 013.87 6.48 7.76 7.76 0 01-2 5.5 6.32 6.32 0 01-4.79 2.11 7.7 7.7 0 01-1.48-.14l-1.62-.28a24.41 24.41 0 00-5.64-.85c-3.17 0-5.42.92-6.74 2.76zm29.88.5c-1.32-1-2-2.87-2-5.5v-2.68q0-3.94 2.11-5.49c1.41-1 3.67-1.55 6.77-1.55 3.28 0 5.59.51 6.9 1.55s2 2.86 2 5.49V110c0 2.73-.69 4.58-2.05 5.57s-3.69 1.48-7 1.48-5.41-.53-6.73-1.56zm13 83.64a8.67 8.67 0 01-12.12 0 8.44 8.44 0 01-2.4-6.13v-58.22a8.46 8.46 0 012.4-6.13 8.69 8.69 0 0112.12 0 8.49 8.49 0 012.39 6.13V193a8.47 8.47 0 01-2.42 6.13zM991.84 167.63a9 9 0 01-5.92 2.11h-46.51a21.26 21.26 0 007.75 13 21.66 21.66 0 0013.67 4.72 30.11 30.11 0 009-1.06 23.34 23.34 0 005.15-2.25c1.26-.8 2.13-1.34 2.6-1.62a10.7 10.7 0 014.79-1.27 6.93 6.93 0 015.08 2.12 6.73 6.73 0 012.11 4.93c0 2.53-1.31 4.84-3.94 6.9a33.59 33.59 0 01-10.57 5.5 41.4 41.4 0 01-13.37 2.29q-11.83 0-20.65-4.93a34.41 34.41 0 01-13.6-13.6 39.7 39.7 0 01-4.79-19.47 43.24 43.24 0 015.07-21.28 36.13 36.13 0 0113.39-14 34.6 34.6 0 0117.76-4.86 33 33 0 0117.55 5.07 38 38 0 0113.17 13.67 36.72 36.72 0 014.93 18.6 7.22 7.22 0 01-2.67 5.43zm-52.29-12h36.93v-1a14.61 14.61 0 00-5.78-10.15 18.31 18.31 0 00-11.84-4.23q-16.35.04-19.31 15.4zM1075.69 99.7a8.39 8.39 0 012.39 6.2V193a8.43 8.43 0 01-2.39 6.13 8.12 8.12 0 01-6.06 2.47 8 8 0 01-6-2.4 8.91 8.91 0 01-2.47-6.06 30.47 30.47 0 01-22.12 9.86 32.17 32.17 0 01-17.62-5 35 35 0 01-12.42-13.88 43.25 43.25 0 01-4.58-20.15 44.3 44.3 0 014.51-20.23 34.62 34.62 0 0112.33-14 31.42 31.42 0 0117.26-5 32.76 32.76 0 0112.69 2.46 33.36 33.36 0 0110 6.28V105.9a8.46 8.46 0 012.4-6.13 8.09 8.09 0 016.06-2.46 8.25 8.25 0 016.02 2.39zm-19.59 81.11q5.78-6.69 5.78-16.84t-5.78-16.91a19.72 19.72 0 00-29.74 0q-5.77 6.76-5.78 16.91t5.71 16.84a18.62 18.62 0 0014.87 6.69 18.82 18.82 0 0014.94-6.69zM1090.77 185.67q0-3.66 3.66-6.2a7.44 7.44 0 014.09-1.27 8 8 0 015.64 2.68 29.67 29.67 0 008.8 6.48 26.28 26.28 0 0011.07 2.12q11-.43 11-8.32a6.75 6.75 0 00-3.74-6.2 52.64 52.64 0 00-11.62-4.23 99.38 99.38 0 01-13.32-4.51 23.55 23.55 0 01-8.88-6.83q-3.74-4.59-3.73-12.33a18.67 18.67 0 013.87-11.77 25.43 25.43 0 0110.15-7.75 32.69 32.69 0 0113.32-2.75 40.8 40.8 0 0114.37 2.68 25 25 0 0111.28 7.89 7.83 7.83 0 011.83 5.07 6.57 6.57 0 01-2.68 5.36 7.13 7.13 0 01-4.51 1.55 6.83 6.83 0 01-5.07-2 18 18 0 00-6.56-4.93 21.64 21.64 0 00-9.09-1.83q-10.71 0-10.71 7.75a6.61 6.61 0 002 5 13.34 13.34 0 005 3q3 1.06 8.53 2.61a93.71 93.71 0 0112.68 4.37 21.76 21.76 0 018.6 6.9c2.34 3.11 3.52 7.19 3.52 12.27a18.78 18.78 0 01-4.09 12 25.84 25.84 0 01-10.5 7.82 33.92 33.92 0 01-13.17 2.67 47.72 47.72 0 01-17.34-3.1 28.77 28.77 0 01-13.1-10 6.84 6.84 0 01-1.3-4.2zM1165.53 199.27a8.48 8.48 0 01-2.18-6.27v-2.4a7.62 7.62 0 018.45-8.45h1.83a7.62 7.62 0 018.46 8.45v2.4a7.62 7.62 0 01-8.46 8.45h-1.83a8.48 8.48 0 01-6.27-2.18zM1251.57 128.52q7.32 3.73 7.33 9.94a8.5 8.5 0 01-1.84 5.42 5.8 5.8 0 01-4.79 2.33 8.87 8.87 0 01-3.66-.64 12.75 12.75 0 01-2.75-1.69 19.63 19.63 0 00-2.61-1.76 17.82 17.82 0 00-4.15-1.27 23.76 23.76 0 00-4.44-.56q-10.58 0-16.56 6.55t-6 17.13q0 10.14 6.06 16.84a20 20 0 0015.5 6.69q6.9 0 10.29-1.69a18 18 0 002.32-1.48 17 17 0 012.75-1.62 7.74 7.74 0 013.1-.56 7.16 7.16 0 015.57 2.25 8.3 8.3 0 012 5.78c0 2.26-1.32 4.37-3.94 6.34a30.81 30.81 0 01-10.43 4.72 52.31 52.31 0 01-13.81 1.76 35.72 35.72 0 01-19.1-5.07 34.09 34.09 0 01-12.76-14 43.76 43.76 0 01-4.5-19.94 42.56 42.56 0 014.72-20.3 34.74 34.74 0 0113.17-13.88 37 37 0 0119.17-5q12.03-.02 19.36 3.71zM1339.37 184.19a35.82 35.82 0 01-13.88 13.88 40.69 40.69 0 01-38.83 0 35.91 35.91 0 01-13.81-13.88 42.8 42.8 0 010-40.45 36.5 36.5 0 0113.81-14 40.19 40.19 0 0138.83 0 36.4 36.4 0 0113.88 14 42.88 42.88 0 010 40.45zm-14.73-32.55a21.27 21.27 0 00-7.75-8.39 21.11 21.11 0 00-21.56 0 21.13 21.13 0 00-7.75 8.39 25.74 25.74 0 00-2.89 12.33 25.38 25.38 0 002.89 12.26 21.23 21.23 0 007.75 8.31 21.11 21.11 0 0021.56 0 21.38 21.38 0 007.75-8.31 25.49 25.49 0 002.89-12.26 25.86 25.86 0 00-2.89-12.33zM1464.8 133.31q5.35 8.53 5.35 23.61V193a8.47 8.47 0 01-2.39 6.13 8.67 8.67 0 01-12.12 0 8.44 8.44 0 01-2.4-6.13v-36.08q0-7.75-3-12.19t-10.64-4.44q-7.89 0-12.33 4.72a16.71 16.71 0 00-4.44 11.91V193a8.44 8.44 0 01-2.4 6.13 8.67 8.67 0 01-12.12 0 8.43 8.43 0 01-2.39-6.13v-36.08q0-7.75-3-12.19t-10.64-4.44q-7.9 0-12.34 4.72a16.7 16.7 0 00-4.43 11.91V193a8.44 8.44 0 01-2.4 6.13 8.67 8.67 0 01-12.12 0 8.44 8.44 0 01-2.4-6.13v-58.21a8.46 8.46 0 012.4-6.13 8.69 8.69 0 0112.12 0 8.46 8.46 0 012.4 6.13v2.26a34.4 34.4 0 019.65-8.67 24.45 24.45 0 0113-3.59q17.74 0 22.69 15.5a33.06 33.06 0 019.79-10.71 24.58 24.58 0 0114.87-4.79q13.93 0 19.29 8.52z" transform="translate(-14 -8)"/></svg>
